# xmcd
#
# Track frame offsets: 
#        150
#        25141
#        51973
#        74301
#        108701
#        126771
#        146102
#        169726
#        190812
#        219585
#        237197
#        256881
#        274036
#        294875
#        314240
#        337145
#
# Disc length: 4806 seconds
#
# Revision: 2
# Processed by: cddbd v1.5.2PL0 Copyright (c) Steve Scherf et al.
# Submitted via: ExactAudioCopy v1.3
#
DISCID=0012c410
DTITLE=Various Artist - Akella Presents - Blues-Rock - vol.23  CD1  N
DTITLE=ew!
DYEAR=2013
DGENRE=Rock
TTITLE0=JAY JESSE JOHNSON - Hell Train
TTITLE1=DAVID SHELLY - Enough Love
TTITLE2=REBEL PRIDE - Tampa Bay Worksong
TTITLE3=LARRY MILLER - The Wrong Name
TTITLE4=BONAFIDE - The Mess
TTITLE5=BLUE PLATE SPESIAL - Rocket In Your Pocket
TTITLE6=FERNANDO NORONHA and BLACK SOUL - Woman You Must Be Crazy
TTITLE7=DIRTY DAVE OSTI - Ball And Chain
TTITLE8=BLINDSIDE BLUES BAND - Sweet Little Angel
TTITLE9=HARDBONE - Devil's Bitch
TTITLE10=TODD WOLFE - Change Will Come
TTITLE11=SNEW - Pull My Stinger
TTITLE12=ALASTAIR GREENE - Get Your Evil On
TTITLE13=COEN WOLTERS BAND - She Takes My Breath Away
TTITLE14=INNES SIBUN - Sooner Or Later
TTITLE15=MEZCALEROS - Hasta La Vista
EXTD=
EXTT0=
EXTT1=
EXTT2=
EXTT3=
EXTT4=
EXTT5=
EXTT6=
EXTT7=
EXTT8=
EXTT9=
EXTT10=
EXTT11=
EXTT12=
EXTT13=
EXTT14=
EXTT15=
PLAYORDER=
